<svg width="30" height="33" viewBox="0 0 30 33" fill="none" xmlns="http://www.w3.org/2000/svg">
<g clip-path="url(#clip0_686_102)">
<path d="M22.233 11.8823C24.4219 13.4009 27.1033 14.2944 29.9994 14.2944V8.88583C29.4513 8.88594 28.9046 8.83041 28.3684 8.72014V12.9775C25.4726 12.9775 22.7914 12.0841 20.6021 10.5656V21.6031C20.6021 27.1247 15.9901 31.6004 10.3013 31.6004C8.17873 31.6004 6.20576 30.9776 4.56689 29.9094C6.43744 31.7657 9.04604 32.9172 11.9319 32.9172C17.6211 32.9172 22.2333 28.4415 22.2333 22.9197V11.8823H22.233ZM24.2451 6.42573C23.1265 5.23967 22.3919 3.70687 22.233 2.01227V1.31665H20.6874C21.0765 3.47041 22.4037 5.31045 24.2451 6.42573ZM8.16502 25.6725C7.54005 24.8772 7.20221 23.9042 7.20373 22.9039C7.20373 20.3786 9.31322 18.331 11.9158 18.331C12.4008 18.3308 12.8829 18.403 13.3452 18.5453V13.0157C12.8049 12.9439 12.2598 12.9133 11.7149 12.9246V17.2285C11.2524 17.0861 10.77 17.0139 10.2848 17.0143C7.68232 17.0143 5.57295 19.0617 5.57295 21.5873C5.57295 23.3732 6.62728 24.9193 8.16502 25.6725Z" fill="#FF004F"/>
<path d="M20.6019 10.5655C22.7913 12.084 25.4722 12.9774 28.3681 12.9774V8.72003C26.7516 8.38582 25.3207 7.56605 24.2448 6.42573C22.4032 5.31033 21.0763 3.4703 20.6872 1.31665H16.6275V22.9195C16.6182 25.4379 14.5123 27.4771 11.9154 27.4771C10.3851 27.4771 9.02551 26.7692 8.16453 25.6724C6.62703 24.9193 5.57258 23.3731 5.57258 21.5874C5.57258 19.062 7.68195 17.0144 10.2845 17.0144C10.7831 17.0144 11.2637 17.0897 11.7145 17.2286V12.9247C6.12559 13.0368 1.63086 17.4688 1.63086 22.9196C1.63086 25.6406 2.75012 28.1073 4.56676 29.9097C6.20563 30.9776 8.17848 31.6006 10.3012 31.6006C15.9901 31.6006 20.602 27.1246 20.602 21.6031L20.6019 10.5655Z" fill="black"/>
<path d="M28.3682 8.71996V7.56906C26.9105 7.57121 25.4816 7.17501 24.2448 6.42578C25.3396 7.58899 26.7811 8.39114 28.3682 8.72019M20.6871 1.31659C20.65 1.1108 20.6216 0.903643 20.6018 0.695617V0H14.9963V21.6031C14.9873 24.1213 12.8815 26.1605 10.2844 26.1605C9.54812 26.1615 8.82192 25.9944 8.16445 25.6726C9.02543 26.7693 10.385 27.4771 11.9153 27.4771C14.5121 27.4771 16.6182 25.4381 16.6274 22.9196V1.3167L20.6871 1.31659ZM11.7148 12.9246V11.6992C11.2464 11.637 10.7741 11.6059 10.3014 11.6061C4.61191 11.6061 0 16.082 0 21.6031C0 25.0645 1.81254 28.1151 4.56691 29.9095C2.75027 28.1072 1.63102 25.6404 1.63102 22.9195C1.63102 17.4688 6.12563 13.0367 11.7148 12.9246Z" fill="#00F2EA"/>
</g>
<defs>
<clipPath id="clip0_686_102">
<rect width="30" height="33" fill="white"/>
</clipPath>
</defs>
</svg>
