<svg width="50" height="35" viewBox="0 0 50 35" fill="none" xmlns="http://www.w3.org/2000/svg">
<g clip-path="url(#clip0_908_41)">
<path d="M48.6784 5.45903C48.3929 4.40389 47.836 3.44195 47.0631 2.669C46.2901 1.89605 45.3282 1.33906 44.2731 1.0535C40.4103 0 24.8636 0 24.8636 0C24.8636 0 9.31626 0.0318888 5.45343 1.08539C4.39827 1.37097 3.43634 1.92799 2.66343 2.70097C1.89051 3.47395 1.33358 4.43593 1.04809 5.49111C-0.120324 12.3546 -0.573574 22.813 1.08018 29.4019C1.36569 30.4571 1.92264 31.419 2.69555 32.192C3.46847 32.9649 4.43038 33.5219 5.48551 33.8075C9.34834 34.861 24.8953 34.861 24.8953 34.861C24.8953 34.861 40.4421 34.861 44.3048 33.8075C45.36 33.5219 46.3219 32.965 47.0949 32.192C47.8678 31.4191 48.4248 30.4571 48.7103 29.4019C49.9427 22.5287 50.3225 12.0768 48.6784 5.45903Z" fill="#FF0000"/>
<path d="M19.915 24.9005L32.8121 17.4304L19.915 9.96021V24.9005Z" fill="white"/>
</g>
<defs>
<clipPath id="clip0_908_41">
<rect width="49.7778" height="35" fill="white"/>
</clipPath>
</defs>
</svg>
