<svg width="30" height="35" viewBox="0 0 30 35" fill="none" xmlns="http://www.w3.org/2000/svg">
<path d="M4.28571 2.1604C1.92188 2.1604 0 4.09794 0 6.48105V28.0843C0 30.4674 1.92188 32.405 4.28571 32.405H25.7143C28.0781 32.405 30 30.4674 30 28.0843V6.48105C30 4.09794 28.0781 2.1604 25.7143 2.1604H4.28571ZM24.1808 7.83126L17.2299 15.838L25.4062 26.7341H19.0045L13.9955 20.1249L8.2567 26.7341H5.07589L12.5089 18.1671L4.66741 7.83126H11.2299L15.7634 13.8734L21 7.83126H24.1808ZM21.6496 24.8168L10.2723 9.64728H8.37723L19.8817 24.8168H21.6429H21.6496Z" fill="black"/>
</svg>
